<svg xmlns="http://www.w3.org/2000/svg" viewBox="0 0 26 34" shape-rendering="crispEdges" role="img" aria-hidden="true"><rect x="12" y="0" width="2" height="1" fill="#3f7fd8"></rect><rect x="11" y="1" width="4" height="1" fill="#3f7fd8"></rect><rect x="12" y="2" width="2" height="1" fill="#3f7fd8"></rect><rect x="9" y="3" width="8" height="1" fill="#3f7fd8"></rect><rect x="7" y="4" width="12" height="1" fill="#3f7fd8"></rect><rect x="6" y="5" width="14" height="1" fill="#3f7fd8"></rect><rect x="6" y="6" width="14" height="1" fill="#3f7fd8"></rect><rect x="5" y="7" width="4" height="1" fill="#3f7fd8"></rect><rect x="9" y="7" width="8" height="1" fill="#f4efe6"></rect><rect x="17" y="7" width="4" height="1" fill="#3f7fd8"></rect><rect x="5" y="8" width="4" height="1" fill="#3f7fd8"></rect><rect x="9" y="8" width="2" height="1" fill="#f4efe6"></rect><rect x="11" y="8" width="4" height="1" fill="#0e1116"></rect><rect x="15" y="8" width="2" height="1" fill="#f4efe6"></rect><rect x="17" y="8" width="4" height="1" fill="#3f7fd8"></rect><rect x="5" y="9" width="4" height="1" fill="#3f7fd8"></rect><rect x="9" y="9" width="2" height="1" fill="#f4efe6"></rect><rect x="11" y="9" width="4" height="1" fill="#0e1116"></rect><rect x="15" y="9" width="2" height="1" fill="#f4efe6"></rect><rect x="17" y="9" width="4" height="1" fill="#3f7fd8"></rect><rect x="5" y="10" width="4" height="1" fill="#3f7fd8"></rect><rect x="9" y="10" width="2" height="1" fill="#f4efe6"></rect><rect x="11" y="10" width="4" height="1" fill="#0e1116"></rect><rect x="15" y="10" width="2" height="1" fill="#f4efe6"></rect><rect x="17" y="10" width="4" height="1" fill="#3f7fd8"></rect><rect x="5" y="11" width="4" height="1" fill="#3f7fd8"></rect><rect x="9" y="11" width="2" height="1" fill="#f4efe6"></rect><rect x="11" y="11" width="4" height="1" fill="#0e1116"></rect><rect x="15" y="11" width="2" height="1" fill="#f4efe6"></rect><rect x="17" y="11" width="4" height="1" fill="#3f7fd8"></rect><rect x="5" y="12" width="4" height="1" fill="#3f7fd8"></rect><rect x="9" y="12" width="8" height="1" fill="#f4efe6"></rect><rect x="17" y="12" width="4" height="1" fill="#3f7fd8"></rect><rect x="5" y="13" width="16" height="1" fill="#3f7fd8"></rect><rect x="6" y="14" width="14" height="1" fill="#3f7fd8"></rect><rect x="6" y="15" width="14" height="1" fill="#3f7fd8"></rect><rect x="6" y="16" width="14" height="1" fill="#3f7fd8"></rect><rect x="7" y="17" width="12" height="1" fill="#3f7fd8"></rect><rect x="6" y="18" width="13" height="1" fill="#27508f"></rect><rect x="20" y="18" width="2" height="1" fill="#27508f"></rect><rect x="6" y="19" width="2" height="1" fill="#27508f"></rect><rect x="20" y="19" width="2" height="1" fill="#27508f"></rect><rect x="5" y="20" width="4" height="1" fill="#27508f"></rect><rect x="19" y="20" width="4" height="1" fill="#27508f"></rect><rect x="4" y="30" width="2" height="1" fill="#f4efe6"></rect><rect x="9" y="30" width="2" height="1" fill="#f4efe6"></rect><rect x="13" y="30" width="2" height="1" fill="#f4efe6"></rect><rect x="18" y="30" width="2" height="1" fill="#f4efe6"></rect><rect x="3" y="31" width="1" height="1" fill="#f4efe6"></rect><rect x="11" y="31" width="2" height="1" fill="#f4efe6"></rect><rect x="20" y="31" width="1" height="1" fill="#f4efe6"></rect></svg>