<svg xmlns="http://www.w3.org/2000/svg" viewBox="0 0 46 24" shape-rendering="crispEdges" role="img" aria-hidden="true"><rect x="30" y="0" width="1" height="1" fill="#e2503f"></rect><rect x="45" y="0" width="1" height="1" fill="#e2503f"></rect><rect x="31" y="1" width="1" height="1" fill="#e2503f"></rect><rect x="44" y="1" width="1" height="1" fill="#e2503f"></rect><rect x="30" y="2" width="1" height="1" fill="#e2503f"></rect><rect x="43" y="2" width="1" height="1" fill="#e2503f"></rect><rect x="31" y="3" width="1" height="1" fill="#e2503f"></rect><rect x="42" y="3" width="1" height="1" fill="#e2503f"></rect><rect x="34" y="4" width="6" height="1" fill="#e2503f"></rect><rect x="0" y="5" width="10" height="1" fill="#6b7480"></rect><rect x="31" y="5" width="10" height="1" fill="#e2503f"></rect><rect x="30" y="6" width="12" height="1" fill="#e2503f"></rect><rect x="29" y="7" width="14" height="1" fill="#e2503f"></rect><rect x="27" y="8" width="16" height="1" fill="#e2503f"></rect><rect x="0" y="9" width="8" height="1" fill="#6b7480"></rect><rect x="27" y="9" width="3" height="1" fill="#e2503f"></rect><rect x="30" y="9" width="1" height="1" fill="#7ee0e3"></rect><rect x="31" y="9" width="2" height="1" fill="#3fb3b8"></rect><rect x="33" y="9" width="1" height="1" fill="#7ee0e3"></rect><rect x="34" y="9" width="2" height="1" fill="#e2503f"></rect><rect x="36" y="9" width="1" height="1" fill="#7ee0e3"></rect><rect x="37" y="9" width="2" height="1" fill="#3fb3b8"></rect><rect x="39" y="9" width="1" height="1" fill="#7ee0e3"></rect><rect x="40" y="9" width="3" height="1" fill="#e2503f"></rect><rect x="26" y="10" width="4" height="1" fill="#e2503f"></rect><rect x="30" y="10" width="1" height="1" fill="#7ee0e3"></rect><rect x="31" y="10" width="2" height="1" fill="#3fb3b8"></rect><rect x="33" y="10" width="1" height="1" fill="#7ee0e3"></rect><rect x="34" y="10" width="2" height="1" fill="#e2503f"></rect><rect x="36" y="10" width="1" height="1" fill="#7ee0e3"></rect><rect x="37" y="10" width="2" height="1" fill="#3fb3b8"></rect><rect x="39" y="10" width="1" height="1" fill="#7ee0e3"></rect><rect x="40" y="10" width="4" height="1" fill="#e2503f"></rect><rect x="24" y="11" width="2" height="1" fill="#f28b7a"></rect><rect x="26" y="11" width="16" height="1" fill="#e2503f"></rect><rect x="42" y="11" width="2" height="1" fill="#f28b7a"></rect><rect x="23" y="12" width="3" height="1" fill="#f28b7a"></rect><rect x="26" y="12" width="16" height="1" fill="#e2503f"></rect><rect x="42" y="12" width="3" height="1" fill="#f28b7a"></rect><rect x="0" y="13" width="6" height="1" fill="#6b7480"></rect><rect x="23" y="13" width="3" height="1" fill="#f28b7a"></rect><rect x="26" y="13" width="16" height="1" fill="#e2503f"></rect><rect x="42" y="13" width="3" height="1" fill="#f28b7a"></rect><rect x="23" y="14" width="2" height="1" fill="#f28b7a"></rect><rect x="25" y="14" width="16" height="1" fill="#e2503f"></rect><rect x="41" y="14" width="2" height="1" fill="#f28b7a"></rect><rect x="25" y="15" width="16" height="1" fill="#e2503f"></rect><rect x="25" y="16" width="16" height="1" fill="#e2503f"></rect><rect x="0" y="17" width="4" height="1" fill="#6b7480"></rect><rect x="25" y="17" width="14" height="1" fill="#e2503f"></rect><rect x="26" y="18" width="12" height="1" fill="#b23628"></rect><rect x="27" y="19" width="10" height="1" fill="#b23628"></rect><rect x="27" y="20" width="2" height="1" fill="#b23628"></rect><rect x="33" y="20" width="2" height="1" fill="#b23628"></rect><rect x="27" y="21" width="2" height="1" fill="#b23628"></rect><rect x="33" y="21" width="2" height="1" fill="#b23628"></rect></svg>