<svg xmlns="http://www.w3.org/2000/svg" viewBox="0 0 32 28" shape-rendering="crispEdges" role="img" aria-hidden="true"><rect x="15" y="0" width="2" height="1" fill="#3f7fd8"></rect><rect x="14" y="1" width="4" height="1" fill="#3f7fd8"></rect><rect x="15" y="2" width="2" height="1" fill="#3f7fd8"></rect><rect x="12" y="3" width="8" height="1" fill="#3f7fd8"></rect><rect x="0" y="4" width="1" height="1" fill="#e8ab3c"></rect><rect x="2" y="4" width="1" height="1" fill="#e8ab3c"></rect><rect x="10" y="4" width="12" height="1" fill="#3f7fd8"></rect><rect x="1" y="5" width="1" height="1" fill="#e8ab3c"></rect><rect x="9" y="5" width="14" height="1" fill="#3f7fd8"></rect><rect x="0" y="6" width="1" height="1" fill="#e8ab3c"></rect><rect x="2" y="6" width="1" height="1" fill="#e8ab3c"></rect><rect x="9" y="6" width="14" height="1" fill="#3f7fd8"></rect><rect x="8" y="7" width="4" height="1" fill="#3f7fd8"></rect><rect x="12" y="7" width="8" height="1" fill="#f4efe6"></rect><rect x="20" y="7" width="4" height="1" fill="#3f7fd8"></rect><rect x="8" y="8" width="4" height="1" fill="#3f7fd8"></rect><rect x="12" y="8" width="2" height="1" fill="#f4efe6"></rect><rect x="14" y="8" width="4" height="1" fill="#0e1116"></rect><rect x="18" y="8" width="2" height="1" fill="#f4efe6"></rect><rect x="20" y="8" width="4" height="1" fill="#3f7fd8"></rect><rect x="28" y="8" width="1" height="1" fill="#e8ab3c"></rect><rect x="30" y="8" width="1" height="1" fill="#e8ab3c"></rect><rect x="8" y="9" width="4" height="1" fill="#3f7fd8"></rect><rect x="12" y="9" width="2" height="1" fill="#f4efe6"></rect><rect x="14" y="9" width="4" height="1" fill="#0e1116"></rect><rect x="18" y="9" width="2" height="1" fill="#f4efe6"></rect><rect x="20" y="9" width="4" height="1" fill="#3f7fd8"></rect><rect x="29" y="9" width="1" height="1" fill="#e8ab3c"></rect><rect x="8" y="10" width="4" height="1" fill="#3f7fd8"></rect><rect x="12" y="10" width="8" height="1" fill="#f4efe6"></rect><rect x="20" y="10" width="4" height="1" fill="#3f7fd8"></rect><rect x="28" y="10" width="1" height="1" fill="#e8ab3c"></rect><rect x="30" y="10" width="1" height="1" fill="#e8ab3c"></rect><rect x="8" y="11" width="4" height="1" fill="#3f7fd8"></rect><rect x="12" y="11" width="8" height="1" fill="#f4efe6"></rect><rect x="20" y="11" width="4" height="1" fill="#3f7fd8"></rect><rect x="8" y="12" width="4" height="1" fill="#3f7fd8"></rect><rect x="12" y="12" width="8" height="1" fill="#f4efe6"></rect><rect x="20" y="12" width="4" height="1" fill="#3f7fd8"></rect><rect x="8" y="13" width="16" height="1" fill="#3f7fd8"></rect><rect x="9" y="14" width="14" height="1" fill="#3f7fd8"></rect><rect x="9" y="15" width="14" height="1" fill="#3f7fd8"></rect><rect x="2" y="16" width="1" height="1" fill="#e8ab3c"></rect><rect x="4" y="16" width="1" height="1" fill="#e8ab3c"></rect><rect x="9" y="16" width="14" height="1" fill="#3f7fd8"></rect><rect x="3" y="17" width="1" height="1" fill="#e8ab3c"></rect><rect x="10" y="17" width="12" height="1" fill="#3f7fd8"></rect><rect x="2" y="18" width="1" height="1" fill="#e8ab3c"></rect><rect x="4" y="18" width="1" height="1" fill="#e8ab3c"></rect><rect x="10" y="18" width="12" height="1" fill="#27508f"></rect><rect x="11" y="19" width="2" height="1" fill="#27508f"></rect><rect x="19" y="19" width="2" height="1" fill="#27508f"></rect><rect x="11" y="20" width="2" height="1" fill="#27508f"></rect><rect x="19" y="20" width="2" height="1" fill="#27508f"></rect><rect x="10" y="21" width="4" height="1" fill="#27508f"></rect><rect x="18" y="21" width="4" height="1" fill="#27508f"></rect></svg>