<svg xmlns="http://www.w3.org/2000/svg" viewBox="0 0 36 70" shape-rendering="crispEdges" role="img" aria-hidden="true"><rect x="15" y="0" width="1" height="1" fill="#040504"></rect><rect x="15" y="1" width="1" height="1" fill="#1e1e1c"></rect><rect x="16" y="1" width="1" height="1" fill="#40362c"></rect><rect x="17" y="1" width="3" height="1" fill="#675847"></rect><rect x="20" y="1" width="1" height="1" fill="#40362c"></rect><rect x="13" y="2" width="2" height="1" fill="#040504"></rect><rect x="15" y="2" width="1" height="1" fill="#1e1e1c"></rect><rect x="16" y="2" width="1" height="1" fill="#40362c"></rect><rect x="17" y="2" width="1" height="1" fill="#e8b03c"></rect><rect x="18" y="2" width="3" height="1" fill="#675847"></rect><rect x="21" y="2" width="1" height="1" fill="#040504"></rect><rect x="13" y="3" width="2" height="1" fill="#040504"></rect><rect x="15" y="3" width="1" height="1" fill="#40362c"></rect><rect x="16" y="3" width="1" height="1" fill="#1e1e1c"></rect><rect x="17" y="3" width="1" height="1" fill="#e8b03c"></rect><rect x="18" y="3" width="2" height="1" fill="#d69a58"></rect><rect x="20" y="3" width="1" height="1" fill="#e8b03c"></rect><rect x="21" y="3" width="1" height="1" fill="#1e1e1c"></rect><rect x="22" y="3" width="2" height="1" fill="#040504"></rect><rect x="11" y="4" width="2" height="1" fill="#040504"></rect><rect x="13" y="4" width="1" height="1" fill="#40362c"></rect><rect x="14" y="4" width="1" height="1" fill="#1e1e1c"></rect><rect x="15" y="4" width="1" height="1" fill="#40362c"></rect><rect x="16" y="4" width="1" height="1" fill="#1e1e1c"></rect><rect x="17" y="4" width="1" height="1" fill="#40362c"></rect><rect x="18" y="4" width="1" height="1" fill="#fbc37b"></rect><rect x="19" y="4" width="1" height="1" fill="#d69a58"></rect><rect x="20" y="4" width="1" height="1" fill="#fbc37b"></rect><rect x="21" y="4" width="1" height="1" fill="#d69a58"></rect><rect x="22" y="4" width="1" height="1" fill="#40362c"></rect><rect x="23" y="4" width="1" height="1" fill="#040504"></rect><rect x="10" y="5" width="2" height="1" fill="#040504"></rect><rect x="12" y="5" width="1" height="1" fill="#1e1e1c"></rect><rect x="13" y="5" width="4" height="1" fill="#40362c"></rect><rect x="17" y="5" width="1" height="1" fill="#1e1e1c"></rect><rect x="18" y="5" width="1" height="1" fill="#e8b03c"></rect><rect x="19" y="5" width="2" height="1" fill="#d69a58"></rect><rect x="21" y="5" width="1" height="1" fill="#ffd678"></rect><rect x="22" y="5" width="1" height="1" fill="#40362c"></rect><rect x="23" y="5" width="1" height="1" fill="#040504"></rect><rect x="9" y="6" width="3" height="1" fill="#040504"></rect><rect x="12" y="6" width="3" height="1" fill="#1e1e1c"></rect><rect x="15" y="6" width="2" height="1" fill="#40362c"></rect><rect x="17" y="6" width="1" height="1" fill="#1e1e1c"></rect><rect x="18" y="6" width="1" height="1" fill="#d69a58"></rect><rect x="19" y="6" width="1" height="1" fill="#675847"></rect><rect x="20" y="6" width="2" height="1" fill="#d69a58"></rect><rect x="22" y="6" width="2" height="1" fill="#40362c"></rect><rect x="24" y="6" width="1" height="1" fill="#040504"></rect><rect x="8" y="7" width="2" height="1" fill="#040504"></rect><rect x="10" y="7" width="1" height="1" fill="#40362c"></rect><rect x="11" y="7" width="2" height="1" fill="#675847"></rect><rect x="13" y="7" width="2" height="1" fill="#1e1e1c"></rect><rect x="15" y="7" width="1" height="1" fill="#040504"></rect><rect x="16" y="7" width="2" height="1" fill="#1e1e1c"></rect><rect x="18" y="7" width="1" height="1" fill="#d69a58"></rect><rect x="19" y="7" width="1" height="1" fill="#40362c"></rect><rect x="20" y="7" width="1" height="1" fill="#675847"></rect><rect x="21" y="7" width="1" height="1" fill="#d69a58"></rect><rect x="22" y="7" width="2" height="1" fill="#40362c"></rect><rect x="24" y="7" width="2" height="1" fill="#040504"></rect><rect x="8" y="8" width="1" height="1" fill="#040504"></rect><rect x="9" y="8" width="7" height="1" fill="#675847"></rect><rect x="16" y="8" width="1" height="1" fill="#40362c"></rect><rect x="17" y="8" width="1" height="1" fill="#040504"></rect><rect x="18" y="8" width="2" height="1" fill="#40362c"></rect><rect x="20" y="8" width="1" height="1" fill="#1e1e1c"></rect><rect x="21" y="8" width="1" height="1" fill="#675847"></rect><rect x="22" y="8" width="1" height="1" fill="#40362c"></rect><rect x="23" y="8" width="2" height="1" fill="#1e1e1c"></rect><rect x="25" y="8" width="1" height="1" fill="#040504"></rect><rect x="7" y="9" width="1" height="1" fill="#040504"></rect><rect x="8" y="9" width="1" height="1" fill="#40362c"></rect><rect x="9" y="9" width="2" height="1" fill="#675847"></rect><rect x="11" y="9" width="1" height="1" fill="#3a3a36"></rect><rect x="12" y="9" width="3" height="1" fill="#675847"></rect><rect x="15" y="9" width="2" height="1" fill="#e8b03c"></rect><rect x="17" y="9" width="1" height="1" fill="#d69a58"></rect><rect x="18" y="9" width="2" height="1" fill="#040504"></rect><rect x="20" y="9" width="1" height="1" fill="#1e1e1c"></rect><rect x="21" y="9" width="1" height="1" fill="#40362c"></rect><rect x="22" y="9" width="1" height="1" fill="#1e1e1c"></rect><rect x="23" y="9" width="1" height="1" fill="#040504"></rect><rect x="24" y="9" width="1" height="1" fill="#675847"></rect><rect x="25" y="9" width="1" height="1" fill="#40362c"></rect><rect x="26" y="9" width="1" height="1" fill="#040504"></rect><rect x="7" y="10" width="1" height="1" fill="#040504"></rect><rect x="8" y="10" width="3" height="1" fill="#675847"></rect><rect x="11" y="10" width="1" height="1" fill="#d69a58"></rect><rect x="12" y="10" width="2" height="1" fill="#675847"></rect><rect x="14" y="10" width="1" height="1" fill="#e8b03c"></rect><rect x="15" y="10" width="5" height="1" fill="#fbc37b"></rect><rect x="20" y="10" width="1" height="1" fill="#675847"></rect><rect x="21" y="10" width="2" height="1" fill="#40362c"></rect><rect x="23" y="10" width="1" height="1" fill="#d69a58"></rect><rect x="24" y="10" width="1" height="1" fill="#fbc37b"></rect><rect x="25" y="10" width="1" height="1" fill="#d69a58"></rect><rect x="26" y="10" width="1" height="1" fill="#040504"></rect><rect x="7" y="11" width="1" height="1" fill="#040504"></rect><rect x="8" y="11" width="5" height="1" fill="#675847"></rect><rect x="13" y="11" width="1" height="1" fill="#fbc37b"></rect><rect x="14" y="11" width="1" height="1" fill="#e8b03c"></rect><rect x="15" y="11" width="11" height="1" fill="#fbc37b"></rect><rect x="26" y="11" width="1" height="1" fill="#040504"></rect><rect x="7" y="12" width="1" height="1" fill="#040504"></rect><rect x="8" y="12" width="6" height="1" fill="#675847"></rect><rect x="14" y="12" width="1" height="1" fill="#d69a58"></rect><rect x="15" y="12" width="11" height="1" fill="#fbc37b"></rect><rect x="26" y="12" width="1" height="1" fill="#040504"></rect><rect x="7" y="13" width="1" height="1" fill="#040504"></rect><rect x="8" y="13" width="1" height="1" fill="#40362c"></rect><rect x="9" y="13" width="5" height="1" fill="#675847"></rect><rect x="14" y="13" width="1" height="1" fill="#e8b03c"></rect><rect x="15" y="13" width="11" height="1" fill="#fbc37b"></rect><rect x="26" y="13" width="1" height="1" fill="#040504"></rect><rect x="7" y="14" width="1" height="1" fill="#040504"></rect><rect x="8" y="14" width="1" height="1" fill="#40362c"></rect><rect x="9" y="14" width="5" height="1" fill="#675847"></rect><rect x="14" y="14" width="1" height="1" fill="#e8b03c"></rect><rect x="15" y="14" width="1" height="1" fill="#fbc37b"></rect><rect x="16" y="14" width="5" height="1" fill="#ffd678"></rect><rect x="21" y="14" width="3" height="1" fill="#fbc37b"></rect><rect x="24" y="14" width="2" height="1" fill="#ffd678"></rect><rect x="26" y="14" width="1" height="1" fill="#040504"></rect><rect x="7" y="15" width="1" height="1" fill="#040504"></rect><rect x="8" y="15" width="1" height="1" fill="#40362c"></rect><rect x="9" y="15" width="4" height="1" fill="#675847"></rect><rect x="13" y="15" width="1" height="1" fill="#d69a58"></rect><rect x="14" y="15" width="1" height="1" fill="#fbc37b"></rect><rect x="15" y="15" width="1" height="1" fill="#ffd678"></rect><rect x="16" y="15" width="3" height="1" fill="#40362c"></rect><rect x="19" y="15" width="1" height="1" fill="#1e1e1c"></rect><rect x="20" y="15" width="1" height="1" fill="#040504"></rect><rect x="21" y="15" width="2" height="1" fill="#fbc37b"></rect><rect x="23" y="15" width="3" height="1" fill="#1e1e1c"></rect><rect x="26" y="15" width="1" height="1" fill="#040504"></rect><rect x="7" y="16" width="1" height="1" fill="#b9b3aa"></rect><rect x="8" y="16" width="1" height="1" fill="#1e1e1c"></rect><rect x="9" y="16" width="4" height="1" fill="#675847"></rect><rect x="13" y="16" width="1" height="1" fill="#e8b03c"></rect><rect x="14" y="16" width="1" height="1" fill="#fbc37b"></rect><rect x="15" y="16" width="1" height="1" fill="#1e1e1c"></rect><rect x="16" y="16" width="4" height="1" fill="#040504"></rect><rect x="20" y="16" width="1" height="1" fill="#675847"></rect><rect x="21" y="16" width="2" height="1" fill="#d69a58"></rect><rect x="23" y="16" width="4" height="1" fill="#040504"></rect><rect x="6" y="17" width="1" height="1" fill="#040504"></rect><rect x="7" y="17" width="4" height="1" fill="#fbc37b"></rect><rect x="11" y="17" width="2" height="1" fill="#675847"></rect><rect x="13" y="17" width="2" height="1" fill="#fbc37b"></rect><rect x="15" y="17" width="1" height="1" fill="#e8b03c"></rect><rect x="16" y="17" width="1" height="1" fill="#040504"></rect><rect x="17" y="17" width="1" height="1" fill="#e8e5de"></rect><rect x="18" y="17" width="1" height="1" fill="#040504"></rect><rect x="19" y="17" width="4" height="1" fill="#fbc37b"></rect><rect x="23" y="17" width="2" height="1" fill="#040504"></rect><rect x="25" y="17" width="1" height="1" fill="#fbc37b"></rect><rect x="26" y="17" width="1" height="1" fill="#040504"></rect><rect x="6" y="18" width="1" height="1" fill="#040504"></rect><rect x="7" y="18" width="1" height="1" fill="#fbc37b"></rect><rect x="8" y="18" width="2" height="1" fill="#675847"></rect><rect x="10" y="18" width="1" height="1" fill="#d69a58"></rect><rect x="11" y="18" width="2" height="1" fill="#675847"></rect><rect x="13" y="18" width="4" height="1" fill="#fbc37b"></rect><rect x="17" y="18" width="1" height="1" fill="#b9b3aa"></rect><rect x="18" y="18" width="1" height="1" fill="#1e1e1c"></rect><rect x="19" y="18" width="5" height="1" fill="#fbc37b"></rect><rect x="24" y="18" width="1" height="1" fill="#1e1e1c"></rect><rect x="25" y="18" width="1" height="1" fill="#ffd678"></rect><rect x="26" y="18" width="1" height="1" fill="#040504"></rect><rect x="6" y="19" width="1" height="1" fill="#040504"></rect><rect x="7" y="19" width="1" height="1" fill="#fbc37b"></rect><rect x="8" y="19" width="1" height="1" fill="#d69a58"></rect><rect x="9" y="19" width="1" height="1" fill="#675847"></rect><rect x="10" y="19" width="2" height="1" fill="#d69a58"></rect><rect x="12" y="19" width="1" height="1" fill="#675847"></rect><rect x="13" y="19" width="5" height="1" fill="#fbc37b"></rect><rect x="18" y="19" width="1" height="1" fill="#ffd678"></rect><rect x="19" y="19" width="2" height="1" fill="#fbc37b"></rect><rect x="21" y="19" width="1" height="1" fill="#e8b03c"></rect><rect x="22" y="19" width="1" height="1" fill="#fbc37b"></rect><rect x="23" y="19" width="1" height="1" fill="#675847"></rect><rect x="24" y="19" width="1" height="1" fill="#ffd678"></rect><rect x="25" y="19" width="1" height="1" fill="#fbc37b"></rect><rect x="26" y="19" width="1" height="1" fill="#040504"></rect><rect x="6" y="20" width="1" height="1" fill="#b9b3aa"></rect><rect x="7" y="20" width="3" height="1" fill="#d69a58"></rect><rect x="10" y="20" width="2" height="1" fill="#fbc37b"></rect><rect x="12" y="20" width="1" height="1" fill="#d69a58"></rect><rect x="13" y="20" width="1" height="1" fill="#e8b03c"></rect><rect x="14" y="20" width="10" height="1" fill="#fbc37b"></rect><rect x="24" y="20" width="1" height="1" fill="#1e1e1c"></rect><rect x="25" y="20" width="1" height="1" fill="#fbc37b"></rect><rect x="26" y="20" width="1" height="1" fill="#040504"></rect><rect x="7" y="21" width="1" height="1" fill="#040504"></rect><rect x="8" y="21" width="3" height="1" fill="#fbc37b"></rect><rect x="11" y="21" width="3" height="1" fill="#d69a58"></rect><rect x="14" y="21" width="7" height="1" fill="#fbc37b"></rect><rect x="21" y="21" width="1" height="1" fill="#d69a58"></rect><rect x="22" y="21" width="1" height="1" fill="#675847"></rect><rect x="23" y="21" width="1" height="1" fill="#1e1e1c"></rect><rect x="24" y="21" width="1" height="1" fill="#040504"></rect><rect x="25" y="21" width="1" height="1" fill="#fbc37b"></rect><rect x="26" y="21" width="1" height="1" fill="#040504"></rect><rect x="8" y="22" width="4" height="1" fill="#040504"></rect><rect x="12" y="22" width="1" height="1" fill="#d69a58"></rect><rect x="13" y="22" width="1" height="1" fill="#fbc37b"></rect><rect x="14" y="22" width="1" height="1" fill="#d69a58"></rect><rect x="15" y="22" width="3" height="1" fill="#fbc37b"></rect><rect x="18" y="22" width="1" height="1" fill="#d69a58"></rect><rect x="19" y="22" width="2" height="1" fill="#fbc37b"></rect><rect x="21" y="22" width="2" height="1" fill="#d69a58"></rect><rect x="23" y="22" width="1" height="1" fill="#675847"></rect><rect x="24" y="22" width="2" height="1" fill="#d69a58"></rect><rect x="26" y="22" width="1" height="1" fill="#040504"></rect><rect x="11" y="23" width="1" height="1" fill="#040504"></rect><rect x="12" y="23" width="1" height="1" fill="#675847"></rect><rect x="13" y="23" width="1" height="1" fill="#d69a58"></rect><rect x="14" y="23" width="1" height="1" fill="#fbc37b"></rect><rect x="15" y="23" width="1" height="1" fill="#d69a58"></rect><rect x="16" y="23" width="1" height="1" fill="#fbc37b"></rect><rect x="17" y="23" width="3" height="1" fill="#d69a58"></rect><rect x="20" y="23" width="4" height="1" fill="#fbc37b"></rect><rect x="24" y="23" width="1" height="1" fill="#d69a58"></rect><rect x="25" y="23" width="1" height="1" fill="#675847"></rect><rect x="26" y="23" width="1" height="1" fill="#040504"></rect><rect x="11" y="24" width="1" height="1" fill="#675847"></rect><rect x="12" y="24" width="1" height="1" fill="#040504"></rect><rect x="13" y="24" width="1" height="1" fill="#675847"></rect><rect x="14" y="24" width="5" height="1" fill="#d69a58"></rect><rect x="19" y="24" width="4" height="1" fill="#40362c"></rect><rect x="23" y="24" width="1" height="1" fill="#040504"></rect><rect x="24" y="24" width="1" height="1" fill="#fbc37b"></rect><rect x="25" y="24" width="1" height="1" fill="#040504"></rect><rect x="12" y="25" width="1" height="1" fill="#040504"></rect><rect x="13" y="25" width="1" height="1" fill="#675847"></rect><rect x="14" y="25" width="4" height="1" fill="#d69a58"></rect><rect x="18" y="25" width="3" height="1" fill="#fbc37b"></rect><rect x="21" y="25" width="1" height="1" fill="#d69a58"></rect><rect x="22" y="25" width="2" height="1" fill="#fbc37b"></rect><rect x="24" y="25" width="1" height="1" fill="#d69a58"></rect><rect x="25" y="25" width="1" height="1" fill="#040504"></rect><rect x="12" y="26" width="1" height="1" fill="#040504"></rect><rect x="13" y="26" width="1" height="1" fill="#675847"></rect><rect x="14" y="26" width="1" height="1" fill="#040504"></rect><rect x="15" y="26" width="1" height="1" fill="#675847"></rect><rect x="16" y="26" width="2" height="1" fill="#d69a58"></rect><rect x="18" y="26" width="3" height="1" fill="#fbc37b"></rect><rect x="21" y="26" width="2" height="1" fill="#d69a58"></rect><rect x="23" y="26" width="1" height="1" fill="#fbc37b"></rect><rect x="24" y="26" width="1" height="1" fill="#d69a58"></rect><rect x="25" y="26" width="1" height="1" fill="#675847"></rect><rect x="12" y="27" width="1" height="1" fill="#040504"></rect><rect x="13" y="27" width="1" height="1" fill="#d69a58"></rect><rect x="14" y="27" width="1" height="1" fill="#675847"></rect><rect x="15" y="27" width="2" height="1" fill="#040504"></rect><rect x="17" y="27" width="1" height="1" fill="#675847"></rect><rect x="18" y="27" width="6" height="1" fill="#d69a58"></rect><rect x="24" y="27" width="1" height="1" fill="#1e1e1c"></rect><rect x="9" y="28" width="4" height="1" fill="#040504"></rect><rect x="13" y="28" width="3" height="1" fill="#d69a58"></rect><rect x="16" y="28" width="1" height="1" fill="#675847"></rect><rect x="17" y="28" width="7" height="1" fill="#040504"></rect><rect x="8" y="29" width="2" height="1" fill="#040504"></rect><rect x="10" y="29" width="3" height="1" fill="#1e1e1c"></rect><rect x="13" y="29" width="1" height="1" fill="#040504"></rect><rect x="14" y="29" width="1" height="1" fill="#d69a58"></rect><rect x="15" y="29" width="1" height="1" fill="#fbc37b"></rect><rect x="16" y="29" width="3" height="1" fill="#d69a58"></rect><rect x="19" y="29" width="1" height="1" fill="#675847"></rect><rect x="20" y="29" width="3" height="1" fill="#040504"></rect><rect x="23" y="29" width="1" height="1" fill="#1e1e1c"></rect><rect x="24" y="29" width="1" height="1" fill="#040504"></rect><rect x="6" y="30" width="9" height="1" fill="#1e1e1c"></rect><rect x="15" y="30" width="1" height="1" fill="#040504"></rect><rect x="16" y="30" width="2" height="1" fill="#e8b03c"></rect><rect x="18" y="30" width="2" height="1" fill="#d69a58"></rect><rect x="20" y="30" width="2" height="1" fill="#040504"></rect><rect x="22" y="30" width="3" height="1" fill="#1e1e1c"></rect><rect x="25" y="30" width="1" height="1" fill="#040504"></rect><rect x="6" y="31" width="1" height="1" fill="#040504"></rect><rect x="7" y="31" width="9" height="1" fill="#1e1e1c"></rect><rect x="16" y="31" width="4" height="1" fill="#040504"></rect><rect x="20" y="31" width="5" height="1" fill="#1e1e1c"></rect><rect x="25" y="31" width="2" height="1" fill="#040504"></rect><rect x="5" y="32" width="2" height="1" fill="#040504"></rect><rect x="7" y="32" width="14" height="1" fill="#1e1e1c"></rect><rect x="21" y="32" width="1" height="1" fill="#40362c"></rect><rect x="22" y="32" width="2" height="1" fill="#1e1e1c"></rect><rect x="24" y="32" width="1" height="1" fill="#040504"></rect><rect x="25" y="32" width="1" height="1" fill="#1e1e1c"></rect><rect x="26" y="32" width="1" height="1" fill="#040504"></rect><rect x="5" y="33" width="1" height="1" fill="#040504"></rect><rect x="6" y="33" width="14" height="1" fill="#1e1e1c"></rect><rect x="20" y="33" width="1" height="1" fill="#40362c"></rect><rect x="21" y="33" width="5" height="1" fill="#1e1e1c"></rect><rect x="26" y="33" width="1" height="1" fill="#040504"></rect><rect x="5" y="34" width="1" height="1" fill="#040504"></rect><rect x="6" y="34" width="22" height="1" fill="#1e1e1c"></rect><rect x="5" y="35" width="1" height="1" fill="#040504"></rect><rect x="6" y="35" width="21" height="1" fill="#1e1e1c"></rect><rect x="27" y="35" width="1" height="1" fill="#040504"></rect><rect x="4" y="36" width="2" height="1" fill="#040504"></rect><rect x="6" y="36" width="5" height="1" fill="#1e1e1c"></rect><rect x="11" y="36" width="2" height="1" fill="#040504"></rect><rect x="13" y="36" width="6" height="1" fill="#1e1e1c"></rect><rect x="19" y="36" width="1" height="1" fill="#40362c"></rect><rect x="20" y="36" width="5" height="1" fill="#1e1e1c"></rect><rect x="25" y="36" width="1" height="1" fill="#040504"></rect><rect x="26" y="36" width="1" height="1" fill="#1e1e1c"></rect><rect x="27" y="36" width="1" height="1" fill="#040504"></rect><rect x="3" y="37" width="2" height="1" fill="#040504"></rect><rect x="5" y="37" width="1" height="1" fill="#675847"></rect><rect x="6" y="37" width="2" height="1" fill="#040504"></rect><rect x="8" y="37" width="3" height="1" fill="#1e1e1c"></rect><rect x="11" y="37" width="1" height="1" fill="#040504"></rect><rect x="12" y="37" width="13" height="1" fill="#1e1e1c"></rect><rect x="25" y="37" width="1" height="1" fill="#040504"></rect><rect x="26" y="37" width="1" height="1" fill="#d69a58"></rect><rect x="27" y="37" width="2" height="1" fill="#040504"></rect><rect x="3" y="38" width="2" height="1" fill="#040504"></rect><rect x="5" y="38" width="1" height="1" fill="#675847"></rect><rect x="6" y="38" width="2" height="1" fill="#fbc37b"></rect><rect x="8" y="38" width="2" height="1" fill="#d69a58"></rect><rect x="10" y="38" width="2" height="1" fill="#040504"></rect><rect x="12" y="38" width="13" height="1" fill="#1e1e1c"></rect><rect x="25" y="38" width="1" height="1" fill="#040504"></rect><rect x="26" y="38" width="1" height="1" fill="#d69a58"></rect><rect x="27" y="38" width="1" height="1" fill="#675847"></rect><rect x="28" y="38" width="1" height="1" fill="#040504"></rect><rect x="3" y="39" width="2" height="1" fill="#040504"></rect><rect x="5" y="39" width="1" height="1" fill="#d69a58"></rect><rect x="6" y="39" width="3" height="1" fill="#fbc37b"></rect><rect x="9" y="39" width="1" height="1" fill="#d69a58"></rect><rect x="10" y="39" width="2" height="1" fill="#040504"></rect><rect x="12" y="39" width="13" height="1" fill="#1e1e1c"></rect><rect x="25" y="39" width="1" height="1" fill="#040504"></rect><rect x="26" y="39" width="1" height="1" fill="#fbc37b"></rect><rect x="27" y="39" width="1" height="1" fill="#d69a58"></rect><rect x="28" y="39" width="1" height="1" fill="#040504"></rect><rect x="3" y="40" width="2" height="1" fill="#040504"></rect><rect x="5" y="40" width="1" height="1" fill="#d69a58"></rect><rect x="6" y="40" width="2" height="1" fill="#fbc37b"></rect><rect x="8" y="40" width="2" height="1" fill="#d69a58"></rect><rect x="10" y="40" width="1" height="1" fill="#040504"></rect><rect x="11" y="40" width="14" height="1" fill="#1e1e1c"></rect><rect x="25" y="40" width="1" height="1" fill="#040504"></rect><rect x="26" y="40" width="1" height="1" fill="#d69a58"></rect><rect x="27" y="40" width="1" height="1" fill="#fbc37b"></rect><rect x="28" y="40" width="1" height="1" fill="#040504"></rect><rect x="3" y="41" width="2" height="1" fill="#040504"></rect><rect x="5" y="41" width="1" height="1" fill="#e8b03c"></rect><rect x="6" y="41" width="3" height="1" fill="#fbc37b"></rect><rect x="9" y="41" width="2" height="1" fill="#040504"></rect><rect x="11" y="41" width="14" height="1" fill="#1e1e1c"></rect><rect x="25" y="41" width="1" height="1" fill="#040504"></rect><rect x="26" y="41" width="1" height="1" fill="#d69a58"></rect><rect x="27" y="41" width="1" height="1" fill="#fbc37b"></rect><rect x="28" y="41" width="1" height="1" fill="#040504"></rect><rect x="3" y="42" width="2" height="1" fill="#040504"></rect><rect x="5" y="42" width="1" height="1" fill="#e8b03c"></rect><rect x="6" y="42" width="3" height="1" fill="#fbc37b"></rect><rect x="9" y="42" width="2" height="1" fill="#040504"></rect><rect x="11" y="42" width="14" height="1" fill="#1e1e1c"></rect><rect x="25" y="42" width="1" height="1" fill="#040504"></rect><rect x="26" y="42" width="1" height="1" fill="#d69a58"></rect><rect x="27" y="42" width="1" height="1" fill="#fbc37b"></rect><rect x="28" y="42" width="1" height="1" fill="#040504"></rect><rect x="3" y="43" width="2" height="1" fill="#040504"></rect><rect x="5" y="43" width="4" height="1" fill="#fbc37b"></rect><rect x="9" y="43" width="3" height="1" fill="#040504"></rect><rect x="12" y="43" width="13" height="1" fill="#1e1e1c"></rect><rect x="25" y="43" width="1" height="1" fill="#040504"></rect><rect x="26" y="43" width="1" height="1" fill="#d69a58"></rect><rect x="27" y="43" width="1" height="1" fill="#fbc37b"></rect><rect x="28" y="43" width="1" height="1" fill="#040504"></rect><rect x="3" y="44" width="2" height="1" fill="#040504"></rect><rect x="5" y="44" width="1" height="1" fill="#d69a58"></rect><rect x="6" y="44" width="2" height="1" fill="#fbc37b"></rect><rect x="8" y="44" width="1" height="1" fill="#d69a58"></rect><rect x="9" y="44" width="2" height="1" fill="#040504"></rect><rect x="11" y="44" width="14" height="1" fill="#1e1e1c"></rect><rect x="25" y="44" width="1" height="1" fill="#040504"></rect><rect x="26" y="44" width="1" height="1" fill="#675847"></rect><rect x="27" y="44" width="1" height="1" fill="#d69a58"></rect><rect x="28" y="44" width="2" height="1" fill="#040504"></rect><rect x="3" y="45" width="2" height="1" fill="#040504"></rect><rect x="5" y="45" width="1" height="1" fill="#d69a58"></rect><rect x="6" y="45" width="2" height="1" fill="#fbc37b"></rect><rect x="8" y="45" width="1" height="1" fill="#d69a58"></rect><rect x="9" y="45" width="4" height="1" fill="#040504"></rect><rect x="13" y="45" width="12" height="1" fill="#1e1e1c"></rect><rect x="25" y="45" width="1" height="1" fill="#040504"></rect><rect x="26" y="45" width="1" height="1" fill="#675847"></rect><rect x="27" y="45" width="1" height="1" fill="#fbc37b"></rect><rect x="28" y="45" width="1" height="1" fill="#d69a58"></rect><rect x="29" y="45" width="1" height="1" fill="#675847"></rect><rect x="30" y="45" width="1" height="1" fill="#040504"></rect><rect x="3" y="46" width="2" height="1" fill="#040504"></rect><rect x="5" y="46" width="1" height="1" fill="#d69a58"></rect><rect x="6" y="46" width="4" height="1" fill="#fbc37b"></rect><rect x="10" y="46" width="16" height="1" fill="#040504"></rect><rect x="26" y="46" width="1" height="1" fill="#d69a58"></rect><rect x="27" y="46" width="2" height="1" fill="#fbc37b"></rect><rect x="29" y="46" width="2" height="1" fill="#040504"></rect><rect x="3" y="47" width="2" height="1" fill="#040504"></rect><rect x="5" y="47" width="1" height="1" fill="#d69a58"></rect><rect x="6" y="47" width="5" height="1" fill="#fbc37b"></rect><rect x="11" y="47" width="1" height="1" fill="#040504"></rect><rect x="12" y="47" width="1" height="1" fill="#244768"></rect><rect x="13" y="47" width="2" height="1" fill="#1b3a57"></rect><rect x="15" y="47" width="3" height="1" fill="#244768"></rect><rect x="18" y="47" width="1" height="1" fill="#1b3a57"></rect><rect x="19" y="47" width="1" height="1" fill="#366998"></rect><rect x="20" y="47" width="2" height="1" fill="#1b3a57"></rect><rect x="22" y="47" width="3" height="1" fill="#244768"></rect><rect x="25" y="47" width="1" height="1" fill="#040504"></rect><rect x="26" y="47" width="1" height="1" fill="#fbc37b"></rect><rect x="27" y="47" width="1" height="1" fill="#d69a58"></rect><rect x="28" y="47" width="1" height="1" fill="#fbc37b"></rect><rect x="29" y="47" width="2" height="1" fill="#040504"></rect><rect x="3" y="48" width="2" height="1" fill="#040504"></rect><rect x="5" y="48" width="1" height="1" fill="#e8b03c"></rect><rect x="6" y="48" width="3" height="1" fill="#fbc37b"></rect><rect x="9" y="48" width="1" height="1" fill="#d69a58"></rect><rect x="10" y="48" width="1" height="1" fill="#ffd678"></rect><rect x="11" y="48" width="1" height="1" fill="#040504"></rect><rect x="12" y="48" width="2" height="1" fill="#366998"></rect><rect x="14" y="48" width="1" height="1" fill="#1b3a57"></rect><rect x="15" y="48" width="3" height="1" fill="#366998"></rect><rect x="18" y="48" width="1" height="1" fill="#1b3a57"></rect><rect x="19" y="48" width="2" height="1" fill="#366998"></rect><rect x="21" y="48" width="1" height="1" fill="#1b3a57"></rect><rect x="22" y="48" width="2" height="1" fill="#366998"></rect><rect x="24" y="48" width="1" height="1" fill="#244768"></rect><rect x="25" y="48" width="1" height="1" fill="#040504"></rect><rect x="26" y="48" width="1" height="1" fill="#e8b03c"></rect><rect x="27" y="48" width="1" height="1" fill="#1e1e1c"></rect><rect x="28" y="48" width="2" height="1" fill="#fbc37b"></rect><rect x="30" y="48" width="1" height="1" fill="#040504"></rect><rect x="3" y="49" width="1" height="1" fill="#040504"></rect><rect x="4" y="49" width="2" height="1" fill="#d69a58"></rect><rect x="6" y="49" width="2" height="1" fill="#fbc37b"></rect><rect x="8" y="49" width="1" height="1" fill="#ffd678"></rect><rect x="9" y="49" width="1" height="1" fill="#1e1e1c"></rect><rect x="10" y="49" width="1" height="1" fill="#e8b03c"></rect><rect x="11" y="49" width="1" height="1" fill="#040504"></rect><rect x="12" y="49" width="1" height="1" fill="#244768"></rect><rect x="13" y="49" width="5" height="1" fill="#366998"></rect><rect x="18" y="49" width="1" height="1" fill="#1b3a57"></rect><rect x="19" y="49" width="2" height="1" fill="#366998"></rect><rect x="21" y="49" width="1" height="1" fill="#1b3a57"></rect><rect x="22" y="49" width="3" height="1" fill="#366998"></rect><rect x="25" y="49" width="1" height="1" fill="#244768"></rect><rect x="26" y="49" width="1" height="1" fill="#040504"></rect><rect x="27" y="49" width="1" height="1" fill="#1e1e1c"></rect><rect x="28" y="49" width="1" height="1" fill="#e8b03c"></rect><rect x="29" y="49" width="2" height="1" fill="#040504"></rect><rect x="4" y="50" width="2" height="1" fill="#040504"></rect><rect x="6" y="50" width="1" height="1" fill="#d69a58"></rect><rect x="7" y="50" width="3" height="1" fill="#fbc37b"></rect><rect x="10" y="50" width="1" height="1" fill="#040504"></rect><rect x="11" y="50" width="1" height="1" fill="#1b3a57"></rect><rect x="12" y="50" width="5" height="1" fill="#366998"></rect><rect x="17" y="50" width="1" height="1" fill="#244768"></rect><rect x="18" y="50" width="1" height="1" fill="#1b3a57"></rect><rect x="19" y="50" width="1" height="1" fill="#244768"></rect><rect x="20" y="50" width="1" height="1" fill="#1b3a57"></rect><rect x="21" y="50" width="2" height="1" fill="#244768"></rect><rect x="23" y="50" width="3" height="1" fill="#366998"></rect><rect x="26" y="50" width="2" height="1" fill="#d69a58"></rect><rect x="28" y="50" width="2" height="1" fill="#040504"></rect><rect x="4" y="51" width="3" height="1" fill="#040504"></rect><rect x="7" y="51" width="2" height="1" fill="#d69a58"></rect><rect x="9" y="51" width="1" height="1" fill="#675847"></rect><rect x="10" y="51" width="1" height="1" fill="#040504"></rect><rect x="11" y="51" width="1" height="1" fill="#244768"></rect><rect x="12" y="51" width="4" height="1" fill="#366998"></rect><rect x="16" y="51" width="1" height="1" fill="#244768"></rect><rect x="17" y="51" width="1" height="1" fill="#1b3a57"></rect><rect x="18" y="51" width="1" height="1" fill="#040504"></rect><rect x="19" y="51" width="1" height="1" fill="#1e1e1c"></rect><rect x="20" y="51" width="2" height="1" fill="#1b3a57"></rect><rect x="22" y="51" width="4" height="1" fill="#366998"></rect><rect x="26" y="51" width="4" height="1" fill="#040504"></rect><rect x="6" y="52" width="4" height="1" fill="#040504"></rect><rect x="10" y="52" width="1" height="1" fill="#1b3a57"></rect><rect x="11" y="52" width="1" height="1" fill="#244768"></rect><rect x="12" y="52" width="4" height="1" fill="#366998"></rect><rect x="16" y="52" width="1" height="1" fill="#244768"></rect><rect x="17" y="52" width="2" height="1" fill="#040504"></rect><rect x="19" y="52" width="1" height="1" fill="#1e1e1c"></rect><rect x="20" y="52" width="1" height="1" fill="#1b3a57"></rect><rect x="21" y="52" width="1" height="1" fill="#244768"></rect><rect x="22" y="52" width="4" height="1" fill="#366998"></rect><rect x="26" y="52" width="1" height="1" fill="#040504"></rect><rect x="8" y="53" width="1" height="1" fill="#1e1e1c"></rect><rect x="9" y="53" width="1" height="1" fill="#040504"></rect><rect x="10" y="53" width="1" height="1" fill="#1b3a57"></rect><rect x="11" y="53" width="5" height="1" fill="#366998"></rect><rect x="16" y="53" width="1" height="1" fill="#1b3a57"></rect><rect x="17" y="53" width="2" height="1" fill="#040504"></rect><rect x="19" y="53" width="2" height="1" fill="#1b3a57"></rect><rect x="21" y="53" width="1" height="1" fill="#244768"></rect><rect x="22" y="53" width="4" height="1" fill="#366998"></rect><rect x="26" y="53" width="1" height="1" fill="#040504"></rect><rect x="8" y="54" width="3" height="1" fill="#244768"></rect><rect x="11" y="54" width="5" height="1" fill="#366998"></rect><rect x="16" y="54" width="1" height="1" fill="#1b3a57"></rect><rect x="17" y="54" width="3" height="1" fill="#040504"></rect><rect x="20" y="54" width="1" height="1" fill="#1b3a57"></rect><rect x="21" y="54" width="1" height="1" fill="#244768"></rect><rect x="22" y="54" width="4" height="1" fill="#366998"></rect><rect x="26" y="54" width="1" height="1" fill="#040504"></rect><rect x="8" y="55" width="3" height="1" fill="#244768"></rect><rect x="11" y="55" width="5" height="1" fill="#366998"></rect><rect x="16" y="55" width="4" height="1" fill="#040504"></rect><rect x="20" y="55" width="1" height="1" fill="#1b3a57"></rect><rect x="21" y="55" width="1" height="1" fill="#244768"></rect><rect x="22" y="55" width="4" height="1" fill="#366998"></rect><rect x="26" y="55" width="1" height="1" fill="#040504"></rect><rect x="8" y="56" width="3" height="1" fill="#1b3a57"></rect><rect x="11" y="56" width="4" height="1" fill="#366998"></rect><rect x="15" y="56" width="1" height="1" fill="#244768"></rect><rect x="16" y="56" width="1" height="1" fill="#040504"></rect><rect x="19" y="56" width="1" height="1" fill="#040504"></rect><rect x="20" y="56" width="1" height="1" fill="#1e1e1c"></rect><rect x="21" y="56" width="1" height="1" fill="#1b3a57"></rect><rect x="22" y="56" width="1" height="1" fill="#244768"></rect><rect x="23" y="56" width="3" height="1" fill="#366998"></rect><rect x="26" y="56" width="1" height="1" fill="#1b3a57"></rect><rect x="27" y="56" width="1" height="1" fill="#040504"></rect><rect x="7" y="57" width="1" height="1" fill="#040504"></rect><rect x="8" y="57" width="2" height="1" fill="#1b3a57"></rect><rect x="10" y="57" width="2" height="1" fill="#244768"></rect><rect x="12" y="57" width="1" height="1" fill="#366998"></rect><rect x="13" y="57" width="2" height="1" fill="#244768"></rect><rect x="15" y="57" width="1" height="1" fill="#1b3a57"></rect><rect x="19" y="57" width="2" height="1" fill="#040504"></rect><rect x="21" y="57" width="2" height="1" fill="#1b3a57"></rect><rect x="23" y="57" width="1" height="1" fill="#366998"></rect><rect x="24" y="57" width="1" height="1" fill="#244768"></rect><rect x="25" y="57" width="1" height="1" fill="#366998"></rect><rect x="26" y="57" width="1" height="1" fill="#244768"></rect><rect x="27" y="57" width="1" height="1" fill="#040504"></rect><rect x="7" y="58" width="1" height="1" fill="#040504"></rect><rect x="8" y="58" width="2" height="1" fill="#1b3a57"></rect><rect x="10" y="58" width="4" height="1" fill="#366998"></rect><rect x="14" y="58" width="1" height="1" fill="#1b3a57"></rect><rect x="15" y="58" width="1" height="1" fill="#040504"></rect><rect x="19" y="58" width="2" height="1" fill="#040504"></rect><rect x="21" y="58" width="1" height="1" fill="#1b3a57"></rect><rect x="22" y="58" width="1" height="1" fill="#244768"></rect><rect x="23" y="58" width="2" height="1" fill="#366998"></rect><rect x="25" y="58" width="2" height="1" fill="#244768"></rect><rect x="27" y="58" width="1" height="1" fill="#040504"></rect><rect x="7" y="59" width="1" height="1" fill="#040504"></rect><rect x="8" y="59" width="2" height="1" fill="#244768"></rect><rect x="10" y="59" width="4" height="1" fill="#366998"></rect><rect x="14" y="59" width="1" height="1" fill="#244768"></rect><rect x="15" y="59" width="1" height="1" fill="#040504"></rect><rect x="19" y="59" width="2" height="1" fill="#040504"></rect><rect x="21" y="59" width="1" height="1" fill="#1b3a57"></rect><rect x="22" y="59" width="1" height="1" fill="#244768"></rect><rect x="23" y="59" width="2" height="1" fill="#366998"></rect><rect x="25" y="59" width="2" height="1" fill="#244768"></rect><rect x="27" y="59" width="1" height="1" fill="#040504"></rect><rect x="7" y="60" width="1" height="1" fill="#040504"></rect><rect x="8" y="60" width="1" height="1" fill="#1b3a57"></rect><rect x="9" y="60" width="1" height="1" fill="#244768"></rect><rect x="10" y="60" width="4" height="1" fill="#366998"></rect><rect x="14" y="60" width="1" height="1" fill="#244768"></rect><rect x="15" y="60" width="1" height="1" fill="#040504"></rect><rect x="19" y="60" width="2" height="1" fill="#040504"></rect><rect x="21" y="60" width="1" height="1" fill="#1b3a57"></rect><rect x="22" y="60" width="1" height="1" fill="#244768"></rect><rect x="23" y="60" width="2" height="1" fill="#366998"></rect><rect x="25" y="60" width="2" height="1" fill="#244768"></rect><rect x="27" y="60" width="1" height="1" fill="#040504"></rect><rect x="7" y="61" width="1" height="1" fill="#040504"></rect><rect x="8" y="61" width="1" height="1" fill="#1b3a57"></rect><rect x="9" y="61" width="1" height="1" fill="#244768"></rect><rect x="10" y="61" width="3" height="1" fill="#366998"></rect><rect x="13" y="61" width="1" height="1" fill="#244768"></rect><rect x="14" y="61" width="1" height="1" fill="#1b3a57"></rect><rect x="15" y="61" width="1" height="1" fill="#040504"></rect><rect x="19" y="61" width="2" height="1" fill="#040504"></rect><rect x="21" y="61" width="1" height="1" fill="#1b3a57"></rect><rect x="22" y="61" width="1" height="1" fill="#244768"></rect><rect x="23" y="61" width="2" height="1" fill="#366998"></rect><rect x="25" y="61" width="1" height="1" fill="#244768"></rect><rect x="26" y="61" width="1" height="1" fill="#1b3a57"></rect><rect x="27" y="61" width="1" height="1" fill="#040504"></rect><rect x="28" y="61" width="1" height="1" fill="#675847"></rect><rect x="6" y="62" width="1" height="1" fill="#b9b3aa"></rect><rect x="7" y="62" width="2" height="1" fill="#1b3a57"></rect><rect x="9" y="62" width="1" height="1" fill="#244768"></rect><rect x="10" y="62" width="4" height="1" fill="#366998"></rect><rect x="14" y="62" width="1" height="1" fill="#1b3a57"></rect><rect x="15" y="62" width="1" height="1" fill="#040504"></rect><rect x="19" y="62" width="2" height="1" fill="#040504"></rect><rect x="21" y="62" width="2" height="1" fill="#1b3a57"></rect><rect x="23" y="62" width="1" height="1" fill="#244768"></rect><rect x="24" y="62" width="3" height="1" fill="#366998"></rect><rect x="27" y="62" width="1" height="1" fill="#244768"></rect><rect x="28" y="62" width="1" height="1" fill="#040504"></rect><rect x="6" y="63" width="1" height="1" fill="#040504"></rect><rect x="7" y="63" width="1" height="1" fill="#1b3a57"></rect><rect x="8" y="63" width="1" height="1" fill="#244768"></rect><rect x="9" y="63" width="4" height="1" fill="#040504"></rect><rect x="13" y="63" width="2" height="1" fill="#244768"></rect><rect x="15" y="63" width="1" height="1" fill="#040504"></rect><rect x="19" y="63" width="2" height="1" fill="#040504"></rect><rect x="21" y="63" width="1" height="1" fill="#1b3a57"></rect><rect x="22" y="63" width="1" height="1" fill="#244768"></rect><rect x="23" y="63" width="1" height="1" fill="#366998"></rect><rect x="24" y="63" width="2" height="1" fill="#244768"></rect><rect x="26" y="63" width="3" height="1" fill="#040504"></rect><rect x="6" y="64" width="3" height="1" fill="#040504"></rect><rect x="9" y="64" width="1" height="1" fill="#675847"></rect><rect x="10" y="64" width="3" height="1" fill="#3a3a36"></rect><rect x="13" y="64" width="1" height="1" fill="#1e1e1c"></rect><rect x="14" y="64" width="2" height="1" fill="#040504"></rect><rect x="19" y="64" width="2" height="1" fill="#040504"></rect><rect x="21" y="64" width="1" height="1" fill="#1e1e1c"></rect><rect x="22" y="64" width="1" height="1" fill="#1b3a57"></rect><rect x="23" y="64" width="3" height="1" fill="#040504"></rect><rect x="26" y="64" width="1" height="1" fill="#3a3a36"></rect><rect x="27" y="64" width="1" height="1" fill="#675847"></rect><rect x="28" y="64" width="3" height="1" fill="#040504"></rect><rect x="6" y="65" width="1" height="1" fill="#040504"></rect><rect x="7" y="65" width="1" height="1" fill="#3a3a36"></rect><rect x="8" y="65" width="4" height="1" fill="#675847"></rect><rect x="12" y="65" width="1" height="1" fill="#3a3a36"></rect><rect x="13" y="65" width="1" height="1" fill="#675847"></rect><rect x="14" y="65" width="1" height="1" fill="#1e1e1c"></rect><rect x="15" y="65" width="1" height="1" fill="#b9b3aa"></rect><rect x="19" y="65" width="1" height="1" fill="#b9b3aa"></rect><rect x="20" y="65" width="1" height="1" fill="#040504"></rect><rect x="21" y="65" width="1" height="1" fill="#1e1e1c"></rect><rect x="22" y="65" width="1" height="1" fill="#040504"></rect><rect x="23" y="65" width="2" height="1" fill="#1e1e1c"></rect><rect x="25" y="65" width="2" height="1" fill="#40362c"></rect><rect x="27" y="65" width="3" height="1" fill="#675847"></rect><rect x="30" y="65" width="1" height="1" fill="#3a3a36"></rect><rect x="31" y="65" width="1" height="1" fill="#040504"></rect><rect x="5" y="66" width="1" height="1" fill="#b9b3aa"></rect><rect x="6" y="66" width="1" height="1" fill="#675847"></rect><rect x="7" y="66" width="3" height="1" fill="#b9b3aa"></rect><rect x="12" y="66" width="1" height="1" fill="#b9b3aa"></rect><rect x="13" y="66" width="2" height="1" fill="#675847"></rect><rect x="15" y="66" width="1" height="1" fill="#040504"></rect><rect x="16" y="66" width="3" height="1" fill="#e8e5de"></rect><rect x="19" y="66" width="1" height="1" fill="#b9b3aa"></rect><rect x="20" y="66" width="1" height="1" fill="#040504"></rect><rect x="21" y="66" width="3" height="1" fill="#675847"></rect><rect x="24" y="66" width="1" height="1" fill="#1e1e1c"></rect><rect x="25" y="66" width="1" height="1" fill="#675847"></rect><rect x="26" y="66" width="5" height="1" fill="#b9b3aa"></rect><rect x="31" y="66" width="1" height="1" fill="#040504"></rect><rect x="2" y="67" width="4" height="1" fill="#b9b3aa"></rect><rect x="6" y="67" width="2" height="1" fill="#675847"></rect><rect x="8" y="67" width="2" height="1" fill="#b9b3aa"></rect><rect x="12" y="67" width="1" height="1" fill="#b9b3aa"></rect><rect x="13" y="67" width="2" height="1" fill="#675847"></rect><rect x="15" y="67" width="1" height="1" fill="#040504"></rect><rect x="16" y="67" width="4" height="1" fill="#b9b3aa"></rect><rect x="20" y="67" width="2" height="1" fill="#040504"></rect><rect x="22" y="67" width="1" height="1" fill="#675847"></rect><rect x="23" y="67" width="2" height="1" fill="#040504"></rect><rect x="25" y="67" width="1" height="1" fill="#675847"></rect><rect x="26" y="67" width="1" height="1" fill="#b9b3aa"></rect><rect x="27" y="67" width="1" height="1" fill="#e8e5de"></rect><rect x="28" y="67" width="2" height="1" fill="#040504"></rect><rect x="30" y="67" width="1" height="1" fill="#b9b3aa"></rect><rect x="31" y="67" width="1" height="1" fill="#040504"></rect><rect x="32" y="67" width="2" height="1" fill="#b9b3aa"></rect><rect x="0" y="68" width="6" height="1" fill="#b9b3aa"></rect><rect x="6" y="68" width="10" height="1" fill="#040504"></rect><rect x="16" y="68" width="4" height="1" fill="#b9b3aa"></rect><rect x="20" y="68" width="12" height="1" fill="#040504"></rect><rect x="32" y="68" width="4" height="1" fill="#b9b3aa"></rect><rect x="2" y="69" width="32" height="1" fill="#b9b3aa"></rect></svg>